<svg xmlns="http://www.w3.org/2000/svg" viewBox="0 0 100 100" role="img" aria-label="Photo de profil">
<defs><clipPath id="c10"><circle cx="50" cy="50" r="50"/></clipPath></defs>
<g clip-path="url(#c10)">
<rect width="100" height="100" fill="#FFE6EF"/>
<path d="M50 72c16 0 29 10 31 28H19c2-18 15-28 31-28z" fill="#3B9EFF"/>
<path d="M42 62h16v14H42z" fill="#6E4028"/>
<ellipse cx="50" cy="45" rx="20" ry="23" fill="#6E4028"/>

<g fill="#1A1614"><circle cx="50" cy="16" r="8"/><path d="M28 44c0-14 10-23 22-23s22 9 22 23c0 0-3-11-22-11s-22 11-22 11z"/></g>
<circle cx="42" cy="46" r="2.4" fill="#231A14"/>
<circle cx="58" cy="46" r="2.4" fill="#231A14"/>
<path d="M44 55c2 2.6 4 3.9 6 3.9s4-1.3 6-3.9" stroke="#231A14" stroke-width="2.2" stroke-linecap="round" fill="none"/>
</g>
</svg>
